<svg width="24" height="24" viewBox="0 0 24 24" fill="none" xmlns="http://www.w3.org/2000/svg">
<g id="clipboard 1" clip-path="url(#clip0_172_2)">
<g id="Group">
<g id="Group_2">
<g id="Group_3">
<path id="Vector" d="M19.0303 2.94444H19.0282H17.0569V2.1731C17.0569 1.92927 16.9188 1.75699 16.7491 1.65521C16.5853 1.55691 16.383 1.51601 16.1998 1.51601H14.6527C14.1908 0.370784 13.1421 -0.196937 11.9754 -0.198148C10.8071 -0.240506 9.74084 0.446758 9.29236 1.51601H7.77193C7.58858 1.51601 7.39108 1.55703 7.23245 1.65797C7.06648 1.76359 6.94341 1.93697 6.94341 2.1731V2.94444H4.9721V2.94443L4.96996 2.94445C3.5773 2.95931 2.43795 4.05793 2.37249 5.44913L2.37227 5.44912V5.45853V21.8287C2.37227 23.2213 3.63142 24.1999 4.9721 24.1999H19.0282C20.3688 24.1999 21.628 23.2213 21.628 21.8287V5.45858H21.6282L21.6278 5.44918C21.5623 4.05794 20.423 2.95931 19.0303 2.94444ZM15.5142 3.05878V4.94432H8.48612V3.05878H9.85745H9.8696L9.88167 3.05731C10.2414 3.01342 10.5307 2.74093 10.5962 2.3849C10.7461 1.74116 11.3106 1.27897 11.9712 1.25902C12.6246 1.28139 13.1796 1.74464 13.3182 2.38378C13.387 2.75314 13.6959 3.03012 14.0708 3.05822L14.0782 3.05878H14.0857H15.5142ZM4.97401 4.48727H6.94335V5.74431V5.75371L6.94423 5.76308C6.98431 6.18806 7.35093 6.50642 7.77673 6.48715H16.1947C16.6233 6.50761 16.9971 6.19716 17.055 5.77125L17.0569 5.75784V5.74431V4.48721H19.0262C19.5771 4.49818 20.0321 4.92005 20.0852 5.46779V21.8287V21.8377C20.0823 22.0744 19.9645 22.2731 19.7716 22.4193C19.5736 22.5693 19.3027 22.6572 19.0282 22.6572H4.9721C4.6976 22.6572 4.42664 22.5693 4.22864 22.4193C4.03333 22.2713 3.91504 22.0693 3.91504 21.8287V5.46785C3.96811 4.92008 4.42307 4.49818 4.97401 4.48727Z" fill="#979595" stroke="#979595" stroke-width="0.4"/>
<path id="Vector_2" d="M7.1788 14.2045L6.54598 13.5482C6.25659 13.2439 5.77675 13.227 5.46662 13.5103L5.46631 13.51L5.45685 13.5199C5.16178 13.829 5.16178 14.3154 5.45685 14.6246L5.45684 14.6246L5.45841 14.6262L6.62688 15.8232C6.76716 15.9781 6.96834 16.0639 7.17741 16.0578C7.37894 16.0545 7.57113 15.9724 7.71286 15.8291L9.93768 13.7184C10.2385 13.4411 10.2584 12.9726 9.98211 12.6708C9.96892 12.6562 9.95531 12.6425 9.94147 12.6296C9.65167 12.3295 9.175 12.3141 8.86637 12.5961L8.86634 12.5961L8.86331 12.599L7.1788 14.2045Z" fill="#979595" stroke="#979595" stroke-width="0.4"/>
<path id="Vector_3" d="M17.9997 13.8008H11.4288C11.0028 13.8008 10.6574 14.1461 10.6574 14.5722C10.6574 14.9982 11.0028 15.3436 11.4288 15.3436H17.9997C18.4257 15.3436 18.7711 14.9982 18.7711 14.5722C18.7711 14.1461 18.4257 13.8008 17.9997 13.8008Z" fill="#979595" stroke="#979595" stroke-width="0.4"/>
<path id="Vector_4" d="M8.86637 8.02503L8.86634 8.02499L8.86331 8.02789L7.1788 9.6334L6.54598 8.97712C6.25661 8.67277 5.77676 8.65577 5.4666 8.93922L5.46629 8.93888L5.45685 8.94877C5.16178 9.25791 5.16178 9.74431 5.45685 10.0535L5.45684 10.0535L5.45841 10.0551L6.62688 11.2521C6.76716 11.407 6.96834 11.4928 7.17741 11.4867C7.37893 11.4833 7.57112 11.4012 7.71285 11.258L9.93768 9.14732C10.2385 8.87004 10.2584 8.40153 9.98211 8.0997C9.96892 8.08509 9.95531 8.07137 9.94147 8.05846C9.65167 7.75841 9.175 7.74297 8.86637 8.02503Z" fill="#979595" stroke="#979595" stroke-width="0.4"/>
<path id="Vector_5" d="M17.9997 9.22969H11.4288C11.0028 9.22969 10.6574 9.57504 10.6574 10.0011C10.6574 10.4271 11.0028 10.7725 11.4288 10.7725H17.9997C18.4257 10.7725 18.7711 10.4271 18.7711 10.0011C18.7711 9.57504 18.4257 9.22969 17.9997 9.22969Z" fill="#979595" stroke="#979595" stroke-width="0.4"/>
<path id="Vector_6" d="M9.98195 17.2417C9.96884 17.2272 9.95534 17.2136 9.94163 17.2008C9.65182 16.9005 9.17505 16.8851 8.86639 17.1671L8.86636 17.1671L8.86331 17.17L7.1788 18.7755L6.54598 18.1193C6.25659 17.8149 5.77675 17.798 5.46662 18.0813L5.46631 18.081L5.45685 18.0909C5.16178 18.4 5.16178 18.8864 5.45685 19.1956L5.45684 19.1956L5.45841 19.1972L6.62688 20.3942C6.76716 20.5492 6.96834 20.635 7.17741 20.6288C7.37894 20.6255 7.57113 20.5434 7.71286 20.4002L9.93768 18.2895C10.2386 18.0121 10.2584 17.5435 9.98195 17.2417ZM9.98195 17.2417C9.98211 17.2418 9.98227 17.242 9.98243 17.2422L9.83412 17.3764L9.98147 17.2411C9.98163 17.2413 9.98179 17.2415 9.98195 17.2417Z" fill="#979595" stroke="#979595" stroke-width="0.4"/>
<path id="Vector_7" d="M17.9997 18.3718H11.4288C11.0028 18.3718 10.6574 18.7172 10.6574 19.1432C10.6574 19.5693 11.0028 19.9146 11.4288 19.9146H17.9997C18.4257 19.9146 18.7711 19.5693 18.7711 19.1432C18.7711 18.7172 18.4257 18.3718 17.9997 18.3718Z" fill="#979595" stroke="#979595" stroke-width="0.4"/>
</g>
</g>
</g>
</g>
<defs>
<clipPath id="clip0_172_2">
<rect width="24" height="24" fill="white"/>
</clipPath>
</defs>
</svg>
